<?xml version="1.0" encoding="UTF-8"?><svg xmlns="http://www.w3.org/2000/svg" width="1240" height="300" viewBox="0 0 1240 300"><g id="a"><circle cx="157.09" cy="147.25" r="130.53" style="fill:#fff;"/><circle cx="157.25" cy="147.26" r="123.54" style="fill:#e2eefb;"/><circle cx="157.45" cy="144.76" r="87.36" style="fill:#fff;"/><circle cx="157.25" cy="144.71" r="81.68" style="fill:#7ebcf2;"/><circle cx="157.25" cy="144.71" r="57.7" style="fill:#fff;"/><circle cx="157.25" cy="144.71" r="52.46" style="fill:#1a80d9;"/><path d="M204.65,172.51l98.72,124.34-146.78-2.16-148.18,2.16,35.6-37.72,111.65-115.42c.56-.58,1.51-.5,1.97.17l29.64,43.63,15.52-15.12c.54-.53,1.41-.47,1.88.12Z" style="fill:#fff;"/><path d="M298.71,296.85H14.34s73.66-77.05,73.74-77.13c17.04-15.79,48.63-50.62,67.55-70.06.57-.58,1.53-.49,1.98.2l25.6,39.41-9.09,12.23c-.6.74-.42,1.27,0,2.12.49.98,1.84-.06,2.54-.85l25.98-24.68c.53-.52,1.38-.48,1.86.08,16.02,18.9,94.22,118.69,94.22,118.69Z" style="fill:#333; fill-rule:evenodd;"/></g><g id="b"><path d="M216.74,296.85c3.01,0-32.63-3.85-38.17-4.29-21.59-1.72-34.65-3.43-43.19-6s-20.59-10.29-26.11-15.44c-3.08-2.87-11.56-12.75-9.43-19.21,2.33-7.06,12.09-7.06,21.4-11.55,2.56-1.24,18.14-8.34,24.19-21.82,3.64-8.12,8.03-22.76,10.01-30.56.12-.49-.08-.89-.46-.89h-1.49c-.34,0-.74.33-.9.75-.87,2.27-3.69,9.56-8.09,19.79-3.48,8.1-5.58,12.2-9.77,16.05-6.58,6.05-22.81,11.3-26.52,12.2-7.48,1.81-10.49,1.81-17.02,6.1-5.81,3.82-7.53,11.15-7.01,16.88.92,10.08,5.45,13.71,6.01,21.71,1,14.48-39.1,17.25-37.66,17.15l164.22-.86Z" style="fill:#fcfcfc; fill-rule:evenodd;"/></g><g id="c"><rect x="340.27" y="79.42" width="904.14" height="138.29" style="fill:none;"/><path d="M378.52,194.53h42.09v20.31h-67.71v-127.73h25.62v107.42Z"/><path d="M440.46,97.08c-2.99-2.86-4.48-6.43-4.48-10.71s1.49-7.84,4.48-10.71c2.99-2.87,6.74-4.3,11.25-4.3s8.26,1.44,11.25,4.3c2.99,2.87,4.48,6.44,4.48,10.71s-1.5,7.84-4.48,10.71c-2.99,2.87-6.74,4.3-11.25,4.3s-8.27-1.43-11.25-4.3ZM464.34,113.46v101.38h-25.62v-101.38h25.62Z"/><path d="M530.68,116.39c5.79-3.05,12.41-4.57,19.86-4.57,8.66,0,16.5,2.14,23.52,6.4,7.01,4.27,12.56,10.34,16.65,18.21,4.09,7.87,6.13,16.99,6.13,27.36s-2.04,19.55-6.13,27.54c-4.09,7.99-9.64,14.18-16.65,18.57-7.02,4.39-14.85,6.59-23.52,6.59-7.57,0-14.18-1.5-19.86-4.48-5.67-2.99-10.22-6.86-13.63-11.62v14.46h-25.62V79.42h25.62v48.86c3.29-4.88,7.84-8.84,13.63-11.9ZM566.91,147.95c-2.5-4.45-5.8-7.84-9.88-10.16-4.09-2.32-8.51-3.48-13.27-3.48s-9,1.19-13.08,3.57c-4.09,2.38-7.38,5.83-9.88,10.34-2.5,4.51-3.75,9.82-3.75,15.92s1.25,11.41,3.75,15.92c2.5,4.52,5.79,7.96,9.88,10.34,4.09,2.38,8.45,3.57,13.08,3.57s9.18-1.22,13.27-3.66c4.09-2.44,7.38-5.92,9.88-10.43,2.5-4.51,3.75-9.88,3.75-16.1s-1.25-11.37-3.75-15.83Z"/><path d="M655.85,116.57c5.31-3.05,11.38-4.58,18.21-4.58v26.9h-6.77c-8.05,0-14.12,1.89-18.21,5.67-4.09,3.78-6.13,10.37-6.13,19.76v50.51h-25.62v-101.38h25.62v15.74c3.29-5.37,7.59-9.58,12.9-12.63Z"/><path d="M786.6,171.83h-74.11c.61,7.32,3.17,13.06,7.69,17.2,4.51,4.15,10.07,6.22,16.65,6.22,9.52,0,16.29-4.09,20.31-12.26h27.63c-2.93,9.76-8.54,17.78-16.84,24.06-8.3,6.28-18.48,9.42-30.56,9.42-9.76,0-18.51-2.16-26.26-6.5-7.75-4.33-13.79-10.46-18.12-18.39-4.33-7.93-6.5-17.08-6.5-27.45s2.13-19.7,6.41-27.63c4.27-7.93,10.25-14.03,17.93-18.3,7.69-4.27,16.53-6.4,26.54-6.4s18.27,2.08,25.89,6.22c7.62,4.15,13.54,10.04,17.75,17.66,4.21,7.63,6.31,16.38,6.31,26.26,0,3.66-.25,6.95-.73,9.88ZM760.8,154.63c-.12-6.59-2.5-11.86-7.14-15.83-4.64-3.96-10.31-5.95-17.02-5.95-6.34,0-11.68,1.92-16.01,5.76-4.33,3.84-6.99,9.18-7.96,16.01h48.13Z"/><path d="M896.13,145.85c-3.23,5.98-8.3,10.8-15.19,14.46-6.89,3.66-15.59,5.49-26.08,5.49h-21.41v49.04h-25.62v-127.73h47.03c9.88,0,18.3,1.71,25.25,5.12,6.95,3.42,12.17,8.11,15.65,14.09,3.48,5.98,5.22,12.75,5.22,20.31,0,6.83-1.62,13.24-4.85,19.21ZM869.5,140.27c3.41-3.23,5.12-7.78,5.12-13.63,0-12.44-6.95-18.67-20.86-18.67h-20.31v37.15h20.31c7.07,0,12.32-1.62,15.74-4.85Z"/><path d="M920.46,136.52c4.09-7.93,9.64-14.03,16.65-18.3,7.01-4.27,14.85-6.4,23.52-6.4,7.56,0,14.18,1.53,19.86,4.57,5.67,3.05,10.22,6.89,13.63,11.53v-14.46h25.8v101.38h-25.8v-14.82c-3.29,4.76-7.84,8.69-13.63,11.8-5.8,3.11-12.48,4.67-20.04,4.67-8.54,0-16.32-2.2-23.33-6.59-7.02-4.39-12.57-10.58-16.65-18.57-4.09-7.99-6.13-17.17-6.13-27.54s2.04-19.33,6.13-27.27ZM990.46,148.14c-2.44-4.45-5.74-7.87-9.88-10.25-4.15-2.38-8.6-3.57-13.36-3.57s-9.15,1.16-13.18,3.48c-4.03,2.32-7.29,5.7-9.79,10.16-2.5,4.46-3.75,9.73-3.75,15.83s1.25,11.44,3.75,16.01c2.5,4.57,5.79,8.08,9.88,10.52,4.09,2.44,8.45,3.66,13.08,3.66s9.21-1.19,13.36-3.57c4.15-2.38,7.44-5.79,9.88-10.25,2.44-4.45,3.66-9.79,3.66-16.01s-1.22-11.56-3.66-16.01Z"/><path d="M1076.65,134.5v49.04c0,3.42.82,5.89,2.47,7.41,1.65,1.53,4.42,2.29,8.33,2.29h11.9v21.59h-16.1c-21.59,0-32.39-10.49-32.39-31.48v-48.86h-12.08v-21.04h12.08v-25.07h25.8v25.07h22.69v21.04h-22.69Z"/><path d="M1197.25,117.03c5.98,3.36,10.64,8.3,14,14.82,3.35,6.53,5.03,14.37,5.03,23.52v59.48h-25.62v-56c0-8.05-2.01-14.24-6.04-18.57-4.03-4.33-9.52-6.5-16.47-6.5s-12.66,2.17-16.74,6.5c-4.09,4.33-6.13,10.52-6.13,18.57v56h-25.62V79.42h25.62v46.67c3.29-4.39,7.69-7.84,13.18-10.34,5.49-2.5,11.59-3.75,18.3-3.75,7.69,0,14.52,1.68,20.5,5.03Z"/></g></svg>